<?xml version="1.0" encoding="UTF-8"?>
<!DOCTYPE svg PUBLIC "-//W3C//DTD SVG 1.1//EN" "http://www.w3.org/Graphics/SVG/1.1/DTD/svg11.dtd">
<svg version="1.1" xmlns="http://www.w3.org/2000/svg" xmlns:xlink="http://www.w3.org/1999/xlink" x="0px" y="0px" width="630" height="630" viewBox="0, 0, 630, 630">
  <g id="logo">
    <path d="M0,0 L630,0 L630,630 L0,630 z" fill="#F7DF1E"/>
    <g>
      <g>
        <path d="M414.999,240 C492.686,240 561.074,291.218 582.928,365.768 L414.999,414.998 z" fill="#8C8010"/>
        <path d="M414.999,240 C492.686,240 561.074,291.218 582.928,365.768 L414.999,414.998 z" fill-opacity="0" stroke="#F7DF1D" stroke-width="6"/>
      </g>
      <g>
        <path d="M582.928,365.768 C600.909,427.103 584.02,493.362 538.873,538.607 C493.727,583.851 427.504,600.883 366.131,583.034 L414.999,414.998 z" fill="#000000"/>
        <path d="M582.928,365.768 C600.909,427.103 584.02,493.362 538.873,538.607 C493.727,583.851 427.504,600.883 366.131,583.034 L414.999,414.998 z" fill-opacity="0" stroke="#F7DF1D" stroke-width="6"/>
      </g>
      <g>
        <path d="M366.131,583.034 C307.325,565.932 261.738,519.333 245.931,460.166 L414.999,414.998 z" fill="#403908"/>
        <path d="M366.131,583.034 C307.325,565.932 261.738,519.333 245.931,460.166 L414.999,414.998 z" fill-opacity="0" stroke="#F7DF1D" stroke-width="6"/>
      </g>
      <g>
        <path d="M245.931,460.166 C231.895,407.626 243.082,351.547 276.203,308.415 C309.325,265.282 360.617,240 414.999,240 L414.999,414.998 z" fill="#665B0C"/>
        <path d="M245.931,460.166 C231.895,407.626 243.082,351.547 276.203,308.415 C309.325,265.282 360.617,240 414.999,240 L414.999,414.998 z" fill-opacity="0" stroke="#F7DF1D" stroke-width="6"/>
      </g>
    </g>
  </g>
  <defs/>
</svg>
